<?xml version="1.0" encoding="utf-8"?>
<!-- Generator: Adobe Illustrator 22.1.0, SVG Export Plug-In . SVG Version: 6.00 Build 0)  -->
<svg version="1.1" id="Layer_1" xmlns="http://www.w3.org/2000/svg" xmlns:xlink="http://www.w3.org/1999/xlink" x="0px" y="0px"
	 viewBox="0 0 40 40" style="enable-background:new 0 0 40 40;" xml:space="preserve">
<path id="Shape" d="M25.8,0.4c3.8,1.3,6,5.3,5,8.9l-7.5,26.3c-1,3.5-4.9,5.3-8.7,4s-6-5.3-5-8.9l7.5-26.3C18.1,0.9,22-0.9,25.8,0.4z
	 M36.6,12.2c2.5,0.9,3.9,3.4,3.2,5.8L35,35c-0.7,2.3-3.2,3.5-5.6,2.6c-2.5-0.9-3.9-3.4-3.2-5.8L31,14.8
	C31.6,12.5,34.1,11.3,36.6,12.2z M10.7,3.9c2.5,0.9,3.9,3.4,3.2,5.8L9,26.7c-0.7,2.3-3.2,3.5-5.6,2.6c-2.5-0.9-3.9-3.4-3.2-5.8
	L5,6.5C5.7,4.2,8.2,3,10.7,3.9z"/>
</svg>
