<?xml version="1.0" encoding="utf-8"?>
<!-- Generator: Adobe Illustrator 22.1.0, SVG Export Plug-In . SVG Version: 6.00 Build 0)  -->
<svg version="1.1" id="Layer_1" xmlns="http://www.w3.org/2000/svg" xmlns:xlink="http://www.w3.org/1999/xlink" x="0px" y="0px"
	 viewBox="0 0 35 40" style="enable-background:new 0 0 35 40;" xml:space="preserve">
<path id="Shape" d="M32.6,15.8L19.3,2.5c-1.4-1.4-3.6-1.4-5,0c-1.2,1.2-1.4,3.1-0.4,4.5l0,0.1c-1,4.8-3.3,9.1-6.7,12.6L1,25.7
	c-1.4,1.4-1.4,3.6,0,5c0,0,0,0,0,0L4.3,34c1.4,1.4,3.6,1.4,5,0l0.8-0.8L16,39c1.4,1.4,3.6,1.4,5,0c1.4-1.4,1.4-3.6,0-4.9l-2.5-2.5
	l0.8-0.8c1.4-1.4,1.4-3.6,0-5c0,0,0,0,0,0l-0.6-0.6c2.8-1.9,6-3.3,9.3-4l0.1,0c1.4,0.9,3.3,0.8,4.5-0.4l0,0
	C33.9,19.4,33.9,17.1,32.6,15.8z M7.7,32.4c-0.5,0.5-1.2,0.5-1.7,0L2.7,29c-0.5-0.5-0.5-1.2,0-1.7l5.8-5.8l5,5
	C12.9,27.1,8.2,31.8,7.7,32.4L7.7,32.4z M19.3,35.7c0.5,0.4,0.5,1.2,0.1,1.7s-1.2,0.5-1.7,0.1c0,0,0,0-0.1-0.1l-5.8-5.8l1.7-1.7
	L19.3,35.7z M15.1,28.2c0.4-0.4,0.9-0.9,1.7-1.6l0.8,0.8c0.5,0.5,0.5,1.2,0,1.7l-0.8,0.8L15.1,28.2z M15.2,24.9l-5.1-5.1
	c2.7-3.1,4.7-6.9,5.7-10.9l10.2,10.2C22,20.3,18.3,22.2,15.2,24.9L15.2,24.9z M30.9,19.1c-0.5,0.5-1.2,0.5-1.7,0L16,5.8
	c-0.5-0.4-0.5-1.2-0.1-1.7c0.4-0.5,1.2-0.5,1.7-0.1c0,0,0,0,0.1,0.1l13.3,13.3C31.3,17.9,31.3,18.6,30.9,19.1L30.9,19.1z M9.3,25.7
	c-0.5-0.5-1.2-0.5-1.7,0L6,27.4c-0.5,0.4-0.5,1.2-0.1,1.7c0.4,0.5,1.2,0.5,1.7,0.1c0,0,0,0,0.1-0.1l1.7-1.7
	C9.8,26.9,9.8,26.2,9.3,25.7L9.3,25.7z M24.7,0c-0.6,0-1.2,0.5-1.2,1.2v2.3c0,0.6,0.5,1.2,1.2,1.2s1.2-0.5,1.2-1.2V1.2
	C25.8,0.5,25.3,0,24.7,0C24.7,0,24.7,0,24.7,0L24.7,0z M34.1,9.4h-2.3c-0.6,0-1.2,0.5-1.2,1.2c0,0.6,0.5,1.2,1.2,1.2l0,0h2.3
	c0.7,0,1.3-0.4,1.3-1.2C35.4,9.8,34.8,9.2,34.1,9.4L34.1,9.4z M32.5,2.7c-0.5-0.5-1.2-0.5-1.7,0L28.5,5c-0.4,0.5-0.4,1.2,0.1,1.7
	c0.5,0.4,1.2,0.4,1.6,0l2.3-2.3c0.5-0.4,0.6-1.1,0.1-1.6C32.6,2.7,32.6,2.7,32.5,2.7L32.5,2.7z"/>
</svg>
