<?xml version="1.0" encoding="utf-8"?>
<!-- Generator: Adobe Illustrator 22.1.0, SVG Export Plug-In . SVG Version: 6.00 Build 0)  -->
<svg version="1.1" id="Layer_1" xmlns="http://www.w3.org/2000/svg" xmlns:xlink="http://www.w3.org/1999/xlink" x="0px" y="0px"
	 viewBox="0 0 40 40" style="enable-background:new 0 0 40 40;" xml:space="preserve">
<path id="Shape" d="M34.2,16.6L21.1,4.3c-1.4-1.3-3.6-1.3-4.9,0c-1.2,1.1-1.4,2.8-0.4,4.1l0,0.1c-0.9,4.4-3.3,8.5-6.7,11.6l-6,5.6
	c-1.4,1.3-1.4,3.3,0,4.6c0,0,0,0,0,0l3.3,3.1c1.4,1.3,3.6,1.3,4.9,0c0,0,0,0,0,0l0.8-0.8l5.8,5.4c1.4,1.3,3.6,1.2,4.9-0.1
	c1.3-1.3,1.3-3.3,0-4.5l-2.5-2.3l0.8-0.8c1.4-1.3,1.4-3.3,0-4.6c0,0,0,0,0,0l-0.6-0.5c2.8-1.8,5.9-3.1,9.2-3.7l0.1,0
	c1.4,0.9,3.2,0.7,4.4-0.4l0,0C35,20.1,34.1,18.2,34.2,16.6z M9.6,31.9c-0.5,0.4-1.2,0.4-1.6,0l-3.3-3.1c-0.5-0.4-0.5-1.1,0-1.5
	c0,0,0,0,0,0l5.8-5.4l4.9,4.6C14.8,27.1,10.2,31.4,9.6,31.9L9.6,31.9z M21.1,35c0.4,0.4,0.4,1.1,0,1.5c-0.4,0.4-1.2,0.4-1.6,0
	l-5.8-5.4l1.6-1.5L21.1,35z M17,28.1c0.3-0.3,0.9-0.8,1.7-1.5l0.8,0.7c0.5,0.4,0.5,1.1,0,1.5c0,0,0,0,0,0l-0.8,0.8L17,28.1z
	 M17,25.1l-5-4.7c2.7-2.9,4.6-6.3,5.7-10.1l10.1,9.5C23.8,20.8,20.1,22.6,17,25.1L17,25.1z M32.6,19.7c-0.5,0.4-1.2,0.4-1.6,0
	L17.8,7.4c-0.4-0.4-0.4-1.1,0-1.5c0.5-0.4,1.2-0.4,1.6,0l13.1,12.3C33.1,18.6,33,19.2,32.6,19.7L32.6,19.7z M11.2,25.8
	c-0.5-0.4-1.2-0.4-1.6,0L8,27.3c-0.5,0.4-0.5,1.1,0,1.5c0.4,0.4,1.2,0.4,1.6,0c0,0,0,0,0,0l1.6-1.5C11.7,26.9,11.7,26.2,11.2,25.8
	C11.2,25.8,11.2,25.8,11.2,25.8L11.2,25.8z M26.4,2c-0.6,0-1.2,0.5-1.2,1.1c0,0,0,0,0,0v2.2c0,0.6,0.5,1.1,1.2,1.1
	c0.6,0,1.2-0.5,1.2-1.1V3.1C27.6,2.5,27.1,2,26.4,2C26.4,2,26.4,2,26.4,2L26.4,2z M35.7,10.7h-2.3c-0.6,0-1.2,0.5-1.2,1.1
	c0,0.6,0.5,1.1,1.2,1.1c0,0,0,0,0,0h2.3c0.6,0.1,1.2-0.4,1.3-1c0.1-0.6-0.4-1.1-1-1.2C35.9,10.7,35.8,10.7,35.7,10.7L35.7,10.7z
	 M34.2,4.5c-0.4-0.4-1.2-0.4-1.6,0c0,0,0,0,0,0l-2.3,2.2c-0.4,0.4-0.4,1.1,0,1.5c0.4,0.4,1.2,0.4,1.6,0L34.2,6
	C34.7,5.6,34.7,4.9,34.2,4.5C34.2,4.5,34.2,4.5,34.2,4.5L34.2,4.5z"/>
</svg>
